# xmcd CD database file
#
# Track frame offsets:
#	150
#	46340
#	92258
#	137720
#
# Disc length: 2448 seconds
#
# Revision: 0
# Processed by: cddbd v1.5.1PL0 Copyright (c) Steve Scherf et al.
# Submitted via: CDex 1.50
#
DISCID=28098e04
DTITLE=峰厚介 - Sunshower
DYEAR=1976
DGENRE=Jazz
TTITLE0=We Got Our Dance
TTITLE1=I Know Where You Come From
TTITLE2=Sunshower
TTITLE3=Expectation
EXTD=YEAR: 1976
EXTT0=
EXTT1=
EXTT2=
EXTT3=
PLAYORDER=
